#!OML:ASF X:\für Bonn\!DataBase\2005_08_10_Bjorn_Final\c3d\bjorn.ASF
:FULLY-SPECIFIED
:DEGREES
47
root 2.24563 16.8446 1.77828 500.515 81.2559 -578.47
lowerback 22.4998 0.81531 0.227293
upperback 16.5208 3.0588 -2.00714
thorax 5.87345 2.49481 -2.73017
lowerneck -2.89636 -6.92984 2.71669
upperneck 3.78092 -9.45317 2.43481
head 1.65174 -4.61979 0.0939572
rclavicle -4.53229e-014 5.68524e-014
rhumerus 10.9623 0.172201 -80.7958
rradius 34.0393
rwrist -0.597929
rhand -25.891 17.2537
rfingers 7.12502
rthumb 0.651023 -12.7251
lclavicle -4.53229e-014 5.68524e-014
lhumerus 1.29988 -26.0097 78.9132
lradius 35.1536
lwrist -14.2611
lhand -26.7066 -12.8246
lfingers 7.12502
lthumb -0.136749 17.1551
rfemur -35.8953 -10.9335 12.4598
rtibia 72.7368
rfoot -26.2761 17.5241
rtoes 3.38463
lfemur -43.2556 5.22151 -23.9452
ltibia 66.0563
lfoot -15.2023 -4.58483
ltoes -7.91802
48
root 2.25956 16.7149 1.76792 500.397 81.1495 -578.812
lowerback 23.0152 0.784739 0.234172
upperback 16.6473 3.06032 -1.98147
thorax 5.77263 2.51309 -2.72638
lowerneck -3.02658 -7.03183 2.59729
upperneck 3.6334 -9.59496 2.61469
head 1.64261 -4.69184 0.162299
rclavicle 6.75868e-015 2.46493e-014
rhumerus 11.6193 0.190007 -80.2645
rradius 33.6951
rwrist -0.369216
rhand -26.1445 17.3187
rfingers 7.12502
rthumb 0.406184 -12.6607
lclavicle 6.75868e-015 2.46493e-014
lhumerus 2.61242 -26.2657 78.4661
lradius 35.546
lwrist -13.9652
lhand -26.6871 -12.9431
lfingers 7.12502
lthumb -0.117846 17.0366
rfemur -37.0979 -10.9912 12.2812
rtibia 74.5438
rfoot -26.7994 17.6571
rtoes 2.35186
lfemur -44.4741 5.24932 -24.1473
ltibia 67.7399
lfoot -15.7929 -4.60166
ltoes -8.06328
49
root 2.27246 16.5804 1.7563 500.41 81.0219 -579.021
lowerback 23.5606 0.732359 0.247192
upperback 16.7491 3.03089 -1.94435
thorax 5.6277 2.51366 -2.71076
lowerneck -3.12747 -7.11484 2.46893
upperneck 3.501 -9.70879 2.77859
head 1.63331 -4.75009 0.228493
rclavicle -2.62396e-014 -3.57812e-015
rhumerus 12.2417 0.197601 -79.7447
rradius 33.3828
rwrist -0.13124
rhand -26.3995 17.3675
rfingers 7.12502
rthumb 0.15985 -12.6122
lclavicle -2.62396e-014 -3.57812e-015
lhumerus 3.85075 -26.5292 78.0005
lradius 36.005
lwrist -13.673
lhand -26.6278 -13.0367
lfingers 7.12502
lthumb -0.0605831 16.9431
rfemur -38.3561 -11.0934 12.0891
rtibia 76.4149
rfoot -27.2858 17.806
rtoes 1.22449
lfemur -45.6987 5.27933 -24.3631
ltibia 69.4322
lfoot -16.4075 -4.6266
ltoes -8.56726
50
root 2.28481 16.4442 1.74419 500.465 80.8854 -579.167
lowerback 24.1041 0.667185 0.259311
upperback 16.8653 2.98806 -1.88264
thorax 5.50029 2.50692 -2.66427
lowerneck -3.19921 -7.19897 2.22864
upperneck 3.3427 -9.82019 3.02737
head 1.62173 -4.8076 0.339646
rclavicle 8.66701e-014 -2.98177e-014
rhumerus 12.8561 0.261648 -79.1557
rradius 33.0969
rwrist 0.0675603
rhand -26.641 17.4407
rfingers 7.12502
rthumb -0.0733824 -12.539
lclavicle 8.66701e-014 -2.98177e-014
lhumerus 5.04761 -26.7601 77.5503
lradius 36.5457
lwrist -13.3645
lhand -26.6221 -13.1194
lfingers 7.12502
lthumb -0.0551354 16.8603
rfemur -39.5914 -11.207 11.8808
rtibia 78.304
rfoot -27.6823 17.9449
rtoes 0.0278045
lfemur -46.9076 5.2836 -24.5665
ltibia 71.1253
lfoot -16.9697 -4.70357
ltoes -8.67514
51
root 2.29879 16.3035 1.73075 500.558 80.7704 -579.277
lowerback 24.6255 0.6039 0.2894
upperback 16.9799 2.95042 -1.80608
thorax 5.38382 2.50279 -2.61104
lowerneck -3.2394 -7.28495 2.00834
upperneck 3.14123 -9.93043 3.23759
head 1.58829 -4.86649 0.438239
rclavicle 1.11319e-014 3.49861e-014
rhumerus 13.4478 0.22428 -78.619
rradius 32.8197
rwrist 0.334132
rhand -26.8346 17.4901
rfingers 7.12502
rthumb -0.260387 -12.4894
lclavicle 1.11319e-014 3.49861e-014
lhumerus 6.21603 -26.9331 77.1091
lradius 37.123
lwrist -13.136
lhand -26.5962 -13.195
lfingers 7.12502
lthumb -0.030114 16.7847
rfemur -40.8399 -11.3442 11.675
rtibia 80.2167
rfoot -27.8816 18.2123
rtoes -0.950611
lfemur -48.1265 5.33118 -24.7688
ltibia 72.8255
lfoot -17.5305 -4.7438
ltoes -9.11961
52
root 2.31293 16.1616 1.71658 500.603 80.6671 -579.444
lowerback 25.1387 0.542205 0.353089
upperback 17.0762 2.91862 -1.74352
thorax 5.25441 2.50395 -2.59302
lowerneck -3.32135 -7.37719 1.82728
upperneck 3.04532 -10.0534 3.41199
head 1.59268 -4.92866 0.515296
rclavicle 4.13472e-014 -2.38542e-014
rhumerus 13.9808 0.172094 -78.0981
rradius 32.5625
rwrist 0.587279
rhand -27.0032 17.527
rfingers 7.12502
rthumb -0.423176 -12.4523
lclavicle 4.13472e-014 -2.38542e-014
lhumerus 7.30911 -27.1378 76.6324
lradius 37.7673
lwrist -12.9092
lhand -26.543 -13.3065
lfingers 7.12502
lthumb 0.0213114 16.6733
rfemur -42.1118 -11.4618 11.4533
rtibia 82.1334
rfoot -27.9501 18.5678
rtoes -1.62984
lfemur -49.3611 5.38062 -24.9689
ltibia 74.5238
lfoot -18.0877 -4.80056
ltoes -9.26833
53
root 2.32713 16.0159 1.70186 500.68 80.5845 -579.547
lowerback 25.6743 0.472755 0.421713
upperback 17.1675 2.8784 -1.6672
thorax 5.10943 2.49998 -2.5619
lowerneck -3.40271 -7.45039 1.66811
upperneck 2.99256 -10.1507 3.53425
head 1.60684 -4.97762 0.572731
rclavicle -2.14687e-014 3.10104e-014
rhumerus 14.4672 0.169725 -77.5685
rradius 32.3074
rwrist 0.776298
rhand -27.1335 17.4779
rfingers 7.12502
rthumb -0.549025 -12.5011
lclavicle -2.14687e-014 3.10104e-014
lhumerus 8.3488 -27.2746 76.1777
lradius 38.4224
lwrist -12.6979
lhand -26.505 -13.3887
lfingers 7.12502
lthumb 0.0579716 16.5911
rfemur -43.3632 -11.582 11.2357
rtibia 84.063
rfoot -27.9525 18.9146
rtoes -2.42685
lfemur -50.5686 5.44888 -25.1391
ltibia 76.2273
lfoot -18.6253 -4.89788
ltoes -9.4248
